<?xml version="1.0" standalone="no"?><!DOCTYPE svg PUBLIC "-//W3C//DTD SVG 1.1//EN" "http://www.w3.org/Graphics/SVG/1.1/DTD/svg11.dtd"><svg t="1702000000000" class="icon" viewBox="0 0 1024 1024" version="1.1" xmlns="http://www.w3.org/2000/svg" p-id="1000" xmlns:xlink="http://www.w3.org/1999/xlink" width="200" height="200"><path d="M512 64C264.6 64 64 264.6 64 512s200.6 448 448 448 448-200.6 448-448S759.4 64 512 64z m0 820c-205.4 0-372-166.6-372-372s166.6-372 372-372 372 166.6 372 372-166.6 372-372 372z" p-id="1001"></path><path d="M512 220c-161.8 0-292 130.2-292 292s130.2 292 292 292 292-130.2 292-292-130.2-292-292-292z m128 384H384c-17.7 0-32-14.3-32-32s14.3-32 32-32h256c17.7 0 32 14.3 32 32s-14.3 32-32 32z m0-128H384c-17.7 0-32-14.3-32-32s14.3-32 32-32h256c17.7 0 32 14.3 32 32s-14.3 32-32 32z m-64-128H448c-17.7 0-32-14.3-32-32s14.3-32 32-32h128c17.7 0 32 14.3 32 32s-14.3 32-32 32z" p-id="1002"></path></svg>
